<svg id="Layer_1" enable-background="new 0 0 512.036 512.036" height="512" viewBox="0 0 512.036 512.036" width="512" xmlns="http://www.w3.org/2000/svg"><g><path d="m92.746 41.817c94.267-42.374 232.276-42.374 326.543-.001 11.081 4.981 19.836 13.957 24.626 25.122 42.805 99.774 42.804 246.427-.002 346.2-4.789 11.162-13.542 20.137-24.621 25.117-94.268 42.375-232.281 42.375-326.549 0-11.079-4.98-19.832-13.954-24.621-25.117-42.805-99.774-42.806-246.428 0-346.202 4.79-11.163 13.544-20.139 24.624-25.119z" fill="#fff2a0"/><path d="m321.018 452.036c-3.71 28.139-31.396 50-65 50-33.604 0-61.29-21.861-65-50" fill="#fff2a0"/><circle cx="156.018" cy="226.036" fill="#fffbdf" r="30"/><g><path d="m376.018 336.036v-15c0-13.807-11.193-25-25-25-13.807 0-25 11.193-25 25v65h65c13.807 0 25-11.193 25-25 0-13.807-11.193-25-25-25z" fill="#ffbdbc"/><g fill="#ffa96b"><path d="m453.104 62.995c-5.807-13.536-16.36-24.297-29.716-30.3-96.98-43.593-237.762-43.594-334.743.001-13.354 6.003-23.907 16.763-29.713 30.297-44.012 102.587-44.012 251.502.001 354.088 5.806 13.533 16.357 24.292 29.71 30.295 29.424 13.226 63.019 22.598 99.867 27.888 12.435 21.962 38.177 36.772 67.507 36.772 29.331 0 55.072-14.81 67.507-36.772 36.848-5.29 70.443-14.662 99.868-27.889 13.354-6.003 23.904-16.762 29.71-30.295 44.014-102.583 44.014-251.498.002-354.085zm-18.38 346.2c-3.825 8.915-10.762 15.997-19.531 19.939-25.013 11.243-53.341 19.549-84.348 24.756.026-.183.063-.363.087-.547.722-5.476-3.132-10.5-8.607-11.221-5.474-.721-10.499 3.132-11.221 8.607-3.104 23.549-26.787 41.307-55.086 41.307s-51.981-17.758-55.086-41.307c-.722-5.475-5.75-9.328-11.221-8.607-5.476.722-9.329 5.746-8.607 11.221.024.184.061.364.087.547-31.007-5.207-59.335-13.513-84.347-24.756-8.77-3.943-15.706-11.024-19.531-19.939-20.181-47.037-31.294-107.112-31.295-169.158 0-62.045 11.114-122.121 31.294-169.158 3.826-8.917 10.763-15.999 19.534-19.941 44.33-19.927 100.858-30.902 159.171-30.902s114.841 10.974 159.172 30.901c8.771 3.943 15.709 11.025 19.535 19.944 20.181 47.038 31.294 107.112 31.294 169.158s-11.114 122.119-31.294 169.156z"/><path d="m378.01 266.038c3.668 0 7.2-2.026 8.952-5.53 2.47-4.94.468-10.947-4.473-13.417l-42.111-21.056 42.111-21.056c4.94-2.47 6.942-8.477 4.473-13.417-2.47-4.94-8.48-6.942-13.416-4.472l-60 30c-3.389 1.694-5.528 5.157-5.528 8.944s2.14 7.25 5.528 8.944l60 30c1.436.72 2.961 1.06 4.464 1.06z"/><path d="m156.018 186.036c-22.056 0-40 17.944-40 40s17.944 40 40 40 40-17.944 40-40-17.944-40-40-40zm0 60c-11.028 0-20-8.972-20-20s8.972-20 20-20 20 8.972 20 20-8.972 20-20 20z"/><path d="m183.45 138.461c5.34 1.416 10.814-1.759 12.233-7.096 1.418-5.337-1.759-10.814-7.096-12.233-37.309-9.914-77.507 4.336-91.518 32.442-2.464 4.943-.454 10.947 4.489 13.411 1.433.714 2.954 1.053 4.453 1.053 3.673 0 7.208-2.031 8.958-5.541 9.598-19.259 40.959-29.349 68.481-22.036z"/><path d="m330.586 138.461c27.524-7.314 58.883 2.778 68.481 22.036 1.75 3.51 5.285 5.541 8.958 5.541 1.499 0 3.021-.339 4.453-1.053 4.943-2.464 6.952-8.468 4.489-13.411-14.011-28.106-54.212-42.358-91.519-32.442-5.338 1.418-8.515 6.896-7.096 12.233 1.42 5.338 6.901 8.514 12.234 7.096z"/><path d="m291.018 331.036c0-19.299-15.701-35-35-35s-35 15.701-35 35c0 5.523 4.477 10 10 10s10-4.477 10-10c0-8.271 6.729-15 15-15s15 6.729 15 15-6.729 15-15 15c-5.523 0-10 4.477-10 10s4.477 10 10 10c8.271 0 15 6.729 15 15s-6.729 15-15 15-15-6.729-15-15c0-5.523-4.477-10-10-10s-10 4.477-10 10c0 19.299 15.701 35 35 35s35-15.701 35-35c0-9.786-4.042-18.642-10.539-25 6.497-6.358 10.539-15.214 10.539-25z"/></g></g></g></svg>